<?xml version="1.0" encoding="UTF-8" standalone="no"?>
<!DOCTYPE svg PUBLIC "-//W3C//DTD SVG 1.1//EN" "http://www.w3.org/Graphics/SVG/1.1/DTD/svg11.dtd">
<svg width="100%" height="100%" viewBox="0 0 24 24" version="1.1" xmlns="http://www.w3.org/2000/svg" xmlns:xlink="http://www.w3.org/1999/xlink" xml:space="preserve" xmlns:serif="http://www.serif.com/" style="fill-rule:evenodd;clip-rule:evenodd;stroke-linejoin:round;stroke-miterlimit:2;">
    <g transform="matrix(0.625023,0,0,0.625023,4.57472,4.49972)">
        <path d="M10.94,13.5L9.62,14.82C9.419,14.012 8.954,13.294 8.298,12.781C7.642,12.268 6.833,11.989 6,11.989C5.167,11.989 4.358,12.268 3.702,12.781C3.046,13.294 2.581,14.012 2.38,14.82L1.06,13.5L0,14.56L1.72,16.28L1.5,16.5L1.5,18L0,18L0,19.5L1.5,19.5L1.5,19.58C1.577,20.069 1.714,20.546 1.91,21L0,22.94L1.06,24L2.71,22.35C3.103,22.851 3.601,23.259 4.17,23.544C4.739,23.829 5.364,23.985 6,24C6.636,23.985 7.261,23.829 7.83,23.544C8.399,23.259 8.897,22.851 9.29,22.35L10.94,24L12,22.94L10.09,21C10.288,20.536 10.426,20.049 10.5,19.55L10.5,19.45L12,19.45L12,18L10.5,18L10.5,16.5L10.28,16.28L12,14.56L10.94,13.5ZM6,13.5C6.597,13.5 7.169,13.737 7.591,14.159C8.013,14.581 8.25,15.153 8.25,15.75L3.75,15.75C3.75,15.153 3.987,14.581 4.409,14.159C4.831,13.737 5.403,13.5 6,13.5ZM9,19.5C8.927,20.271 8.587,20.992 8.04,21.54C7.492,22.087 6.771,22.427 6,22.5C5.229,22.427 4.508,22.087 3.96,21.54C3.413,20.992 3.073,20.271 3,19.5L3,17.25L9,17.25L9,19.5ZM23.76,9.6L23.76,10.86L13.5,17.37L13.5,15.6L22,10.23L9,2L9,11.46C8.543,11.139 8.036,10.896 7.5,10.74L7.5,0.63L8.64,0L23.76,9.6Z" style="fill:white;fill-rule:nonzero;"/>
    </g>
</svg>
