<?xml version="1.0" encoding="UTF-8" standalone="no"?>
<!DOCTYPE svg PUBLIC "-//W3C//DTD SVG 1.1//EN" "http://www.w3.org/Graphics/SVG/1.1/DTD/svg11.dtd">
<svg width="100%" height="100%" viewBox="0 0 24 24" version="1.1" xmlns="http://www.w3.org/2000/svg" xmlns:xlink="http://www.w3.org/1999/xlink" xml:space="preserve" xmlns:serif="http://www.serif.com/" style="fill-rule:evenodd;clip-rule:evenodd;stroke-linejoin:round;stroke-miterlimit:2;">
    <g transform="matrix(0.580624,0,0,0.580624,5.03252,5.03252)">
        <path d="M13.5,1.5L15,0L22.5,0L24,1.5L24,9L22.5,10.5L15,10.5L13.5,9L13.5,1.5ZM15,1.5L15,9L22.5,9L22.5,1.5L15,1.5ZM0,22.5L0,6L1.5,4.5L9,4.5L10.5,6L10.5,13.5L18,13.5L19.5,15L19.5,22.5L18,24L1.5,24L0,22.5ZM9,13.5L9,6L1.5,6L1.5,13.5L9,13.5ZM9,15L1.5,15L1.5,22.5L9,22.5L9,15ZM10.5,22.5L18,22.5L18,15L10.5,15L10.5,22.5Z" style="fill:white;"/>
    </g>
</svg>
