<?xml version="1.0" encoding="UTF-8" standalone="no"?>
<!DOCTYPE svg PUBLIC "-//W3C//DTD SVG 1.1//EN" "http://www.w3.org/Graphics/SVG/1.1/DTD/svg11.dtd">
<svg width="100%" height="100%" viewBox="0 0 24 24" version="1.1" xmlns="http://www.w3.org/2000/svg" xmlns:xlink="http://www.w3.org/1999/xlink" xml:space="preserve" xmlns:serif="http://www.serif.com/" style="fill-rule:evenodd;clip-rule:evenodd;stroke-linejoin:round;stroke-miterlimit:2;">
    <g transform="matrix(0.590826,0,0,0.583821,5.2055,4.99415)">
        <path d="M17.5,0L8.5,0L7,1.5L7,6L2.5,6L1,7.5L1,22.57L2.5,24L14.57,24L16,22.57L16,18L20.7,18L22,16.57L22,4.5L17.5,0ZM17.5,2.12L19.88,4.5L17.5,4.5L17.5,2.12ZM14.5,22.5L2.5,22.5L2.5,7.5L7,7.5L7,16.57L8.5,18L14.5,18L14.5,22.5ZM20.5,16.5L8.5,16.5L8.5,1.5L16,1.5L16,6L20.5,6L20.5,16.5Z" style="fill:white;fill-rule:nonzero;"/>
    </g>
</svg>
