<?xml version="1.0" encoding="UTF-8" standalone="no"?>
<!DOCTYPE svg PUBLIC "-//W3C//DTD SVG 1.1//EN" "http://www.w3.org/Graphics/SVG/1.1/DTD/svg11.dtd">
<svg width="100%" height="100%" viewBox="0 0 24 24" version="1.1" xmlns="http://www.w3.org/2000/svg" xmlns:xlink="http://www.w3.org/1999/xlink" xml:space="preserve" xmlns:serif="http://www.serif.com/" style="fill-rule:evenodd;clip-rule:evenodd;stroke-linejoin:round;stroke-miterlimit:2;">
    <g transform="matrix(0.60077,0,0,0.60077,4.64038,4.82681)">
        <path d="M15.25,0C13.661,-0.001 12.105,0.458 10.769,1.32C9.434,2.183 8.377,3.412 7.724,4.862C7.071,6.311 6.851,7.918 7.09,9.49C7.328,11.061 8.016,12.53 9.07,13.72L1,22.88L2.12,23.88L10.17,14.76C11.206,15.569 12.419,16.12 13.71,16.365C15.001,16.61 16.333,16.544 17.593,16.171C18.853,15.798 20.006,15.129 20.955,14.22C21.904,13.311 22.623,12.189 23.051,10.947C23.479,9.704 23.604,8.377 23.415,7.076C23.227,5.776 22.73,4.539 21.967,3.469C21.204,2.399 20.196,1.527 19.028,0.925C17.86,0.324 16.564,0.01 15.25,0.01L15.25,0ZM15.25,15C13.915,15 12.61,14.604 11.5,13.862C10.39,13.121 9.525,12.067 9.014,10.833C8.503,9.6 8.369,8.242 8.63,6.933C8.89,5.624 9.533,4.421 10.477,3.477C11.421,2.533 12.624,1.89 13.933,1.63C15.243,1.369 16.6,1.503 17.833,2.014C19.067,2.525 20.121,3.39 20.862,4.5C21.604,5.61 22,6.915 22,8.25C22,10.04 21.289,11.757 20.023,13.023C18.757,14.289 17.04,15 15.25,15Z" style="fill:white;fill-rule:nonzero;"/>
    </g>
</svg>
