<?xml version="1.0" encoding="UTF-8" standalone="no"?>
<!DOCTYPE svg PUBLIC "-//W3C//DTD SVG 1.1//EN" "http://www.w3.org/Graphics/SVG/1.1/DTD/svg11.dtd">
<svg width="100%" height="100%" viewBox="0 0 24 24" version="1.1" xmlns="http://www.w3.org/2000/svg" xmlns:xlink="http://www.w3.org/1999/xlink" xml:space="preserve" xmlns:serif="http://www.serif.com/" style="fill-rule:evenodd;clip-rule:evenodd;stroke-linejoin:round;stroke-miterlimit:2;">
    <g transform="matrix(0.584878,0,0,0.584878,4.9815,4.98148)">
        <path d="M21.007,8.222C21.01,7.528 20.821,6.847 20.459,6.255C20.097,5.663 19.578,5.183 18.959,4.87C18.34,4.556 17.646,4.421 16.955,4.479C16.264,4.538 15.602,4.788 15.045,5.201C14.488,5.614 14.056,6.174 13.799,6.819C13.542,7.463 13.47,8.166 13.589,8.849C13.71,9.533 14.017,10.169 14.479,10.687C14.94,11.206 15.537,11.585 16.201,11.784C15.956,12.282 15.576,12.703 15.105,12.998C14.633,13.293 14.089,13.451 13.533,13.453L10.544,13.453C9.437,13.457 8.371,13.873 7.554,14.619L7.554,7.398C8.462,7.213 9.268,6.697 9.817,5.952C10.366,5.206 10.618,4.283 10.525,3.361C10.432,2.44 10,1.586 9.313,0.965C8.626,0.344 7.733,0 6.807,0C5.881,0 4.988,0.344 4.301,0.965C3.614,1.586 3.182,2.44 3.089,3.361C2.996,4.283 3.248,5.206 3.797,5.952C4.346,6.697 5.152,7.213 6.06,7.398L6.06,16.516C5.154,16.689 4.343,17.188 3.78,17.918C3.216,18.648 2.94,19.559 3.002,20.479C3.064,21.398 3.46,22.264 4.117,22.912C4.773,23.559 5.643,23.944 6.564,23.994C7.485,24.045 8.392,23.756 9.114,23.183C9.837,22.61 10.325,21.793 10.486,20.885C10.648,19.977 10.471,19.042 9.99,18.255C9.509,17.468 8.757,16.885 7.876,16.615C8.122,16.116 8.501,15.696 8.973,15.402C9.444,15.107 9.988,14.95 10.544,14.948L13.533,14.948C14.466,14.944 15.374,14.649 16.131,14.104C16.888,13.559 17.457,12.792 17.757,11.909C18.653,11.791 19.476,11.353 20.074,10.675C20.671,9.997 21.003,9.125 21.007,8.222ZM4.565,3.738C4.565,3.294 4.696,2.861 4.943,2.492C5.189,2.123 5.539,1.836 5.949,1.666C6.359,1.496 6.809,1.452 7.244,1.539C7.679,1.625 8.079,1.839 8.392,2.152C8.706,2.466 8.919,2.865 9.006,3.3C9.092,3.735 9.048,4.186 8.878,4.596C8.709,5.005 8.421,5.355 8.053,5.602C7.684,5.848 7.25,5.98 6.807,5.98C6.212,5.98 5.642,5.743 5.222,5.323C4.801,4.902 4.565,4.332 4.565,3.738ZM9.049,20.179C9.049,20.623 8.917,21.056 8.671,21.425C8.425,21.794 8.075,22.081 7.665,22.251C7.255,22.421 6.804,22.465 6.37,22.378C5.935,22.292 5.535,22.078 5.222,21.765C4.908,21.451 4.694,21.052 4.608,20.617C4.521,20.182 4.566,19.731 4.736,19.321C4.905,18.912 5.193,18.562 5.561,18.315C5.93,18.069 6.363,17.937 6.807,17.937C7.402,17.937 7.972,18.174 8.392,18.594C8.813,19.015 9.049,19.585 9.049,20.179ZM17.27,10.464C16.827,10.464 16.393,10.332 16.024,10.086C15.656,9.84 15.368,9.489 15.199,9.08C15.029,8.67 14.984,8.219 15.071,7.784C15.157,7.349 15.371,6.95 15.685,6.636C15.998,6.323 16.398,6.109 16.833,6.023C17.267,5.936 17.718,5.981 18.128,6.15C18.538,6.32 18.888,6.607 19.134,6.976C19.381,7.345 19.512,7.778 19.512,8.222C19.512,8.816 19.276,9.387 18.855,9.807C18.435,10.227 17.865,10.464 17.27,10.464Z" style="fill:white;fill-rule:nonzero;"/>
    </g>
</svg>
